:FULLY-SPECIFIED
:FORCE-ALL-JOINTS-BE-3DOF
:DEGREES
1223
root -0.842055 14.8461 -16.6087 6.1621 23.0663 2.96815
lfemur 3.48843 1.04248 -8.88494
ltibia 52.299 0 0
lfoot -7.57471 15.189 -2.32792
ltoes -27.5495 0 0
rfemur -53.2887 -13.7037 16.3578
rtibia 70.7822 0 0
rfoot -15.7018 -10.3788 0.714531
rtoes -7.12825 0 0
lowerback 13.8499 2.20905 -5.90071
upperback -2.45776 1.89755 -0.448543
thorax -10.6971 1.23709 2.39496
lowerneck -0.661047 -10.3137 -11.2751
upperneck 2.12864 -13.9825 11.2216
head 2.38018 -6.95253 4.62452
lclavicle -1.92488e-15 -1.5403e-14 -1.03828e-30
lhumerus -62.4219 -25.4273 111.901
lradius 95.1097 0 0
lwrist 36.2922 0 0
lhand -21.4166 31.2199 0.430408
lfingers 7.12502 0 0
lthumb 4.96819 60.9735 0.401985
rclavicle -1.92488e-15 -1.5403e-14 -1.03828e-30
rhumerus 63.7968 -1.19592 -27.9656
rradius 92.3692 0 0
rwrist -2.82142 0 0
rhand -32.987 -33.6696 -0.0380372
rfingers 7.12502 0 0
rthumb -6.20009 -63.5016 -0.042666
1224
root -0.856038 14.8573 -16.487 6.5861 22.1394 2.64414
lfemur 2.77659 0.741239 -8.92025
ltibia 53.7582 0 0
lfoot -6.14017 13.3459 -2.33538
ltoes -27.6946 0 0
rfemur -53.1733 -13.0447 17.2509
rtibia 71.0729 0 0
rfoot -16.2493 -11.6943 0.720983
rtoes -6.91219 0 0
lowerback 13.661 2.10803 -5.46244
upperback -2.58109 1.85508 -0.38813
thorax -10.7046 1.19458 2.22656
lowerneck -0.750894 -10.0572 -11.0633
upperneck 1.97536 -13.6143 11.0903
head 2.28427 -6.76799 4.57989
lclavicle -4.20973e-15 -1.55957e-14 -1.04838e-30
lhumerus -61.4589 -26.426 112.75
lradius 93.9892 0 0
lwrist 32.9313 0 0
lhand -22.2744 30.489 0.424806
lfingers 7.12502 0 0
lthumb 4.14021 60.2602 0.396496
rclavicle -4.20973e-15 -1.55957e-14 -1.04838e-30
rhumerus 63.9344 -0.355975 -27.8141
rradius 92.5561 0 0
rwrist -4.16178 0 0
rhand -32.493 -33.8128 -0.0369706
rfingers 7.12502 0 0
rthumb -5.7231 -63.6582 -0.041666
1225
root -0.870021 14.8684 -16.3652 7.0559 21.1426 2.28758
lfemur 2.01264 0.41363 -8.94744
ltibia 55.3179 0 0
lfoot -4.57746 11.3489 -2.28894
ltoes -27.8646 0 0
rfemur -53.0448 -12.3403 18.2223
rtibia 71.4011 0 0
rfoot -16.8582 -13.1234 0.710716
rtoes -6.68547 0 0
lowerback 13.4587 1.99966 -4.98625
upperback -2.71611 1.80837 -0.32211
thorax -10.7157 1.14815 2.04408
lowerneck -0.845873 -9.78006 -10.8344
upperneck 1.80396 -13.2166 10.9475
head 2.17878 -6.56865 4.53143
lclavicle -6.72579e-15 -1.58351e-14 -1.03326e-30
lhumerus -60.4299 -27.525 113.654
lradius 92.7745 0 0
lwrist 29.3098 0 0
lhand -23.2069 29.7307 0.409883
lfingers 7.12502 0 0
lthumb 3.24011 59.5213 0.382323
rclavicle -6.72579e-15 -1.58351e-14 -1.03326e-30
rhumerus 64.0844 0.553619 -27.6445
rradius 92.7586 0 0
rwrist -5.62024 0 0
rhand -31.9553 -33.9571 -0.0351323
rfingers 7.12502 0 0
rthumb -5.20406 -63.8171 -0.0397844
1226
root -0.884004 14.8796 -16.2435 7.57448 20.0737 1.89562
lfemur 1.19453 0.0586301 -8.96513
ltibia 56.9818 0 0
lfoot -2.8833 9.19318 -2.17504
ltoes -28.0611 0 0
rfemur -52.9007 -11.5895 19.2756
rtibia 71.7686 0 0
rfoot -17.5313 -14.671 0.679264
rtoes -6.44787 0 0
lowerback 13.2423 1.8839 -4.47045
upperback -2.86338 1.75724 -0.250204
thorax -10.7308 1.09762 1.84693
lowerneck -0.946009 -9.48099 -10.5874
upperneck 1.61337 -12.7885 10.7925
head 2.06324 -6.35394 4.47893
lclavicle -9.48429e-15 -1.61244e-14 -9.86947e-31
lhumerus -59.3337 -28.7308 114.612
lradius 91.4617 0 0
lwrist 25.4176 0 0
lhand -24.2173 28.9454 0.383659
lfingers 7.12502 0 0
lthumb 2.26482 58.7571 0.357635
rclavicle -9.48429e-15 -1.61244e-14 -9.86947e-31
rhumerus 64.248 1.53571 -27.4552
rradius 92.9772 0 0
rwrist -7.20204 0 0
rhand -31.3722 -34.1022 -0.0323861
rfingers 7.12502 0 0
rthumb -4.6411 -63.978 -0.0368542
1227
root -0.897987 14.8907 -16.1218 8.14502 18.931 1.46512
lfemur 0.320174 -0.32473 -8.97176
ltibia 58.7532 0 0
lfoot -1.05551 6.87529 -1.97839
ltoes -28.2854 0 0
rfemur -52.7382 -10.7911 20.4141
rtibia 72.1779 0 0
rfoot -18.2709 -16.3416 0.621509
rtoes -6.1992 0 0
lowerback 13.0113 1.76077 -3.91331
upperback -3.02345 1.70151 -0.172127
thorax -10.75 1.04278 1.63453
lowerneck -1.05118 -9.1592 -10.322
upperneck 1.40248 -12.3289 10.6246
head 1.93715 -6.12326 4.42213
lclavicle -1.24965e-14 -1.64665e-14 -9.02429e-31
lhumerus -58.1693 -30.05 115.623
lradius 90.0466 0 0
lwrist 21.2441 0 0
lhand -25.3087 28.1332 0.343958
lfingers 7.12502 0 0
lthumb 1.21132 57.9678 0.320425
rclavicle -1.24965e-14 -1.64665e-14 -9.02429e-31
rhumerus 64.4264 2.59314 -27.2448
rradius 93.2126 0 0
rwrist -8.91243 0 0
rhand -30.7416 -34.2476 -0.0285909
rfingers 7.12502 0 0
rthumb -4.03236 -64.1407 -0.032699
1228
root -0.91197 14.9019 -16.0001 8.77094 17.7125 0.992637
lfemur -0.612535 -0.737359 -8.96565
ltibia 60.6358 0 0
lfoot 0.906639 4.39269 -1.682
ltoes -28.5392 0 0
rfemur -52.5542 -9.94427 21.6417
rtibia 72.6307 0 0
rfoot -19.079 -18.1395 0.531635
rtoes -5.93926 0 0
lowerback 12.7649 1.63037 -3.31311
upperback -3.19687 1.64103 -0.0875896
thorax -10.7735 0.983418 1.40627
lowerneck -1.16128 -8.81374 -10.0374
upperneck 1.17018 -11.8366 10.4429
head 1.80003 -5.87604 4.36077
lclavicle -1.57735e-14 -1.68646e-14 -7.71574e-31
lhumerus -56.9356 -31.4896 116.686
lradius 88.5253 0 0
lwrist 16.7791 0 0
lhand -26.4841 27.2946 0.288411
lfingers 7.12502 0 0
lthumb 0.076618 57.1539 0.26851
rclavicle -1.57735e-14 -1.68646e-14 -7.71574e-31
rhumerus 64.6211 3.72868 -27.0116
rradius 93.4654 0 0
rwrist -10.7566 0 0
rhand -30.0617 -34.3931 -0.0236017
rfingers 7.12502 0 0
rthumb -3.37596 -64.3049 -0.0271331
1229
root -0.925953 14.913 -15.8784 9.45597 16.4168 0.474347
lfemur -1.60577 -1.18009 -8.94497
ltibia 62.633 0 0
lfoot 3.00221 1.74425 -1.2672
ltoes -28.8238 0 0
rfemur -52.3452 -9.0482 22.962
rtibia 73.1291 0 0
rfoot -19.9572 -20.069 0.403095
rtoes -5.66786 0 0
lowerback 12.5024 1.49283 -2.66811
upperback -3.38422 1.57565 0.00370213
thorax -10.8016 0.919324 1.16158
lowerneck -1.27612 -8.44369 -9.73312
upperneck 0.915292 -11.3106 10.2465
head 1.65139 -5.61171 4.29459
lclavicle -1.93267e-14 -1.73217e-14 -5.84989e-31
lhumerus -55.6317 -33.0567 117.8
lradius 86.8937 0 0
lwrist 12.012 0 0
lhand -27.7467 26.43 0.214447
lfingers 7.12502 0 0
lthumb -1.14221 56.316 0.199525
rclavicle -1.93267e-14 -1.73217e-14 -5.84989e-31
rhumerus 64.8338 4.9451 -26.7538
rradius 93.7363 0 0
rwrist -12.7399 0 0
rhand -29.3304 -34.5384 -0.0172717
rfingers 7.12502 0 0
rthumb -2.67006 -64.4703 -0.0199627
1230
root -0.939936 14.9242 -15.7567 10.2042 15.0426 -0.0939708
lfemur -2.66178 -1.65367 -8.90773
ltibia 64.7485 0 0
lfoot 5.22832 -1.06963 -0.71375
ltoes -29.1409 0 0
rfemur -52.1073 -8.10243 24.379
rtibia 73.6753 0 0
rfoot -20.9065 -22.1341 0.22858
rtoes -5.3848 0 0
lowerback 12.2231 1.34835 -1.97657
upperback -3.58605 1.50521 0.102049
thorax -10.8345 0.850275 0.899879
lowerneck -1.39552 -8.04809 -9.40851
upperneck 0.636614 -10.7499 10.0345
head 1.49071 -5.32969 4.22329
lclavicle -2.31673e-14 -1.78407e-14 -3.31896e-31
lhumerus -54.2564 -34.7583 118.963
lradius 85.1478 0 0
lwrist 6.9327 0 0
lhand -29.0993 25.5401 0.119298
lfingers 7.12502 0 0
lthumb -2.44804 55.4546 0.110928
rclavicle -2.31673e-14 -1.78407e-14 -3.31896e-31
rhumerus 65.0665 6.24512 -26.4693
rradius 94.026 0 0
rwrist -14.8674 0 0
rhand -28.546 -34.6829 -0.00945319
rfingers 7.12502 0 0
rthumb -1.9128 -64.6366 -0.0109871
1231
root -0.953919 14.9353 -15.635 371.02 13.5888 359.283
lfemur -3.78286 -2.15874 -8.85175
ltibia 66.9857 0 0
lfoot 7.57986 -4.04685 0
ltoes -29.4918 0 0
rfemur -51.8362 -7.10674 25.8968
rtibia 74.2712 0 0
rfoot -21.9274 -24.3383 0
rtoes -5.08988 0 0
lowerback 11.9262 1.19723 -1.23674
upperback -3.80293 1.42959 0.207756
thorax -10.8723 0.776045 0.620577
lowerneck -1.51922 -7.62598 -9.06303
upperneck 0.332896 -10.1536 9.80585
head 1.31749 -5.02942 4.14657
lclavicle -2.73065e-14 -1.84249e-14 0
lhumerus -52.8082 -36.6017 120.172
lradius 83.2836 0 0
lwrist 1.53065 0 0
lhand -30.5449 24.6257 0
lfingers 7.12502 0 0
lthumb -3.84369 54.5707 0
rclavicle -2.73065e-14 -1.84249e-14 0
rhumerus 65.3214 7.63141 -26.1557
rradius 94.3351 0 0
rwrist -17.1445 0 0
rhand -27.7064 -34.8265 0
rfingers 7.12502 0 0
rthumb -1.1023 -64.8034 0
1232
root -0.947689 14.9414 -15.3826 11.0567 13.1496 -0.919811
lfemur -4.54304 -1.90774 -8.90047
ltibia 67.0883 0 0
lfoot 7.88222 -4.21324 0.100631
ltoes -28.9078 0 0
rfemur -51.0861 -6.89686 26.1321
rtibia 73.9812 0 0
rfoot -21.9159 -24.6283 -0.0263799
rtoes -5.38291 0 0
lowerback 11.7973 1.19723 -1.08396
upperback -3.84499 1.45801 0.252386
thorax -10.8383 0.78312 0.582409
lowerneck -1.58548 -7.51237 -8.97738
upperneck 0.402392 -10.001 9.73477
head 1.32604 -4.95067 4.1202
lclavicle -2.77652e-14 -1.81568e-14 1.92372e-33
lhumerus -51.4901 -37.2393 119.876
lradius 83.1583 0 0
lwrist 1.33587 0 0
lhand -30.6975 24.6863 -0.0185749
lfingers 7.12502 0 0
lthumb -3.991 54.6354 -0.0173527
rclavicle -2.77652e-14 -1.81568e-14 1.92372e-33
rhumerus 64.7744 8.58676 -26.3753
rradius 94.3157 0 0
rwrist -17.7564 0 0
rhand -27.3347 -34.7922 0.0170757
rfingers 7.12502 0 0
rthumb -0.743851 -64.7596 0.0191129
